# xmcd CD database file
#
# Track frame offsets:
#	182
#	14180
#	26350
#	43590
#	58012
#	68552
#	80880
#	94445
#	110155
#	120395
#	135070
#	144610
#	157685
#	174040
#
# Disc length: 2475 seconds
#
# Revision: 2
# Processed by: cddbd v1.4b41PL1 Copyright (c) Steve Scherf et al.
# Submitted via: Feurio! 1.60 - http://www.feurio.com
#
DISCID=a209a90e,b309a90e
DTITLE=Daliah Lavi - Country Songs
DYEAR=1900
DGENRE=
TTITLE0=Die Songs Von Gestern -1972
TTITLE1=Bei Dir Bin Ich Noch Zu Haus' (River Road) -1978
TTITLE2=Flüster (Whisper) -1981
TTITLE3=Lang Ist's Her -1978
TTITLE4=Du Bist Mein Problem -1978
TTITLE5=Was Ich Nicht Weiß, Macht Mich Nicht Heiß -1978
TTITLE6=Von Dir Krieg' Ich Nie Genug (Promises) -1982
TTITLE7=Weißt Du, Was Du Für Mich Bist (Sing Me An Old Fashioned Song) -1977
TTITLE8=Wie Die Schwalben (Snowbird) -1971
TTITLE9=Rosegarden -1971
TTITLE10=Schalt Dein Radio Ein (Turn Your Radio On) -1973
TTITLE11=Neuer Wind (Delta Dawn) -1976
TTITLE12=Worte Wie Pfeile -1976
TTITLE13=Heut' Muß Ich Geh'n (I Got To Go) -1978
EXTD=Spectrum
EXTT0=
EXTT1=
EXTT2=
EXTT3=
EXTT4=
EXTT5=
EXTT6=
EXTT7=
EXTT8=
EXTT9=
EXTT10=
EXTT11=
EXTT12=
EXTT13=
PLAYORDER=
